<?xml version="1.0" standalone="no"?>
<!DOCTYPE svg PUBLIC "-//W3C//DTD SVG 20010904//EN"
 "http://www.w3.org/TR/2001/REC-SVG-20010904/DTD/svg10.dtd">
<svg version="1.0" xmlns="http://www.w3.org/2000/svg"
 width="700.000000pt" height="700.000000pt" viewBox="0 0 700.000000 700.000000"
 preserveAspectRatio="xMidYMid meet">
<metadata>
Created by potrace 1.14, written by Peter Selinger 2001-2017
</metadata>
<g transform="translate(0.000000,700.000000) scale(0.100000,-0.100000)"
fill="#000000" stroke="none">
<path d="M3340 6899 c-750 -39 -1445 -359 -1970 -905 -435 -453 -700 -997
-796 -1637 -21 -143 -30 -515 -15 -674 55 -583 265 -1106 634 -1578 76 -97
1840 -1872 1918 -1930 115 -86 243 -127 389 -127 112 0 194 19 300 69 73 35
101 62 1016 977 963 964 994 997 1151 1231 202 300 348 653 427 1030 70 337
78 734 20 1085 -123 756 -557 1453 -1189 1910 -438 317 -1003 520 -1515 545
-63 3 -140 7 -170 9 -30 1 -120 -1 -200 -5z m599 -1323 c47 -25 51 -48 51
-302 l0 -235 -52 3 -53 3 -3 138 -3 137 -379 0 -379 0 -3 -137 -3 -138 -52 -3
-53 -3 0 241 0 242 34 34 34 34 416 0 c341 0 422 -3 445 -14z m-686 -693 l28
-53 219 0 219 0 28 53 28 52 220 0 c272 0 299 -7 391 -99 107 -107 99 -19 99
-1131 0 -1094 6 -1019 -86 -1119 -55 -60 -106 -89 -186 -106 -49 -11 -53 -14
-53 -41 0 -47 -26 -96 -59 -113 -50 -26 -88 -21 -127 18 -29 29 -34 41 -34 80
l0 46 -440 0 -440 0 0 -46 c0 -39 -5 -51 -34 -80 -70 -70 -167 -29 -182 78 -6
47 -7 47 -55 57 -27 6 -65 17 -84 25 -50 21 -123 93 -153 151 l-27 50 0 1000
0 1000 29 53 c50 90 140 156 235 172 25 4 134 7 241 6 l195 -1 28 -52z"/>
<path d="M2887 4420 c-15 -12 -31 -38 -37 -58 -14 -51 -14 -1373 0 -1424 27
-94 155 -108 199 -21 16 32 16 1432 -1 1468 -24 54 -113 73 -161 35z"/>
<path d="M3428 4411 l-33 -29 0 -732 0 -732 33 -29 c47 -43 102 -41 148 5 l34
34 0 722 0 722 -34 34 c-46 46 -101 48 -148 5z"/>
<path d="M3974 4406 l-34 -34 0 -722 0 -722 34 -34 c56 -56 135 -44 171 26 13
25 15 128 15 730 0 757 1 737 -52 774 -12 9 -40 16 -61 16 -31 0 -46 -7 -73
-34z"/>
</g>
</svg>
